<svg width="1920" height="1080" viewBox="0 0 1920 1080" fill="none" xmlns="http://www.w3.org/2000/svg">
<rect width="1920" height="1080" fill="white"/>
<rect width="1920" height="1080" fill="#222222"/>
<g clip-path="url(#clip0_1470_12703)">
<path d="M867.87 585.876V415.696H886.686V585.876C886.686 638.212 848.343 669.898 806.095 669.898C802.899 669.898 799.704 669.898 796.509 669.542C834.497 664.558 867.87 637.856 867.87 585.876ZM709.882 415.696H729.053V585.876C729.053 637.856 762.426 664.558 800.059 669.542C797.219 669.898 794.024 669.898 790.828 669.898C748.935 669.898 709.882 638.212 709.882 585.876V415.696ZM1040.41 538.525C1078.76 538.525 1109.64 513.959 1109.64 477.645C1109.64 440.974 1079.11 415.696 1038.28 415.696H1003.14V416.052C1059.23 416.052 1089.41 440.618 1089.41 477.645C1089.41 516.451 1055.33 538.525 1001.01 538.169V538.525H1021.95L1105.74 664.558H1128.11L1038.28 538.525H1040.41ZM983.609 415.696V664.558H1003.14V415.696H983.609ZM1317.69 410.356C1380.18 410.356 1438.05 461.98 1438.05 540.661C1438.05 618.274 1380.18 669.898 1317.69 669.898C1314.14 669.898 1310.95 669.898 1307.4 669.898C1365.62 664.202 1417.81 612.578 1417.81 540.661C1417.81 467.676 1365.62 416.052 1307.4 410.356C1310.95 410.356 1314.14 410.356 1317.69 410.356ZM1203.73 540.661C1203.73 612.578 1255.56 664.202 1313.43 669.898C1309.88 669.898 1306.69 669.898 1303.14 669.898C1241.36 669.898 1183.14 618.274 1183.14 540.661C1183.14 461.98 1241.36 410.356 1303.14 410.356C1306.69 410.356 1309.88 410.356 1313.43 410.356C1255.56 416.052 1203.73 467.676 1203.73 540.661ZM1691.54 415.696H1710V664.558H1691.54V415.696ZM1559.11 415.696L1693.31 664.558H1673.79L1540.3 415.696H1559.11ZM1523.25 415.696H1541.72V664.558H1523.25V415.696ZM236.272 473.372C236.272 437.414 260.769 414.984 289.882 410.712C286.686 410.356 283.491 410 279.941 410C246.213 410 216.036 437.058 216.036 473.372C216.036 509.331 246.213 536.745 279.941 536.745C283.136 536.745 286.686 536.389 289.882 535.677C260.769 531.76 236.272 509.331 236.272 473.372ZM340.296 469.812H360.888C358.757 435.278 329.29 410 296.982 410C293.432 410 290.237 410.356 286.686 410.712C315.089 414.984 338.876 435.99 340.296 469.812ZM296.982 534.965C293.787 534.965 289.882 535.321 286.686 535.677C318.994 539.593 346.331 564.515 346.331 602.965C346.331 641.06 319.349 665.626 287.041 669.898C290.237 670.254 293.432 670.61 296.982 670.61C333.55 670.61 366.568 641.416 366.568 602.965C366.568 564.159 333.55 534.965 296.982 534.965ZM230.592 606.526H210C212.13 643.196 244.438 670.61 279.941 670.61C283.491 670.61 286.686 670.254 290.237 669.898C258.639 665.982 232.367 642.484 230.592 606.526ZM619.704 664.914H638.876L553.669 415.696H535.207L588.462 570.567H483.728L536.627 415.696H518.521L433.669 664.914H452.13L481.598 576.62H590.237L619.704 664.914Z" fill="#F9F2E6"/>
</g>
<defs>
<clipPath id="clip0_1470_12703">
<rect width="1500" height="260.61" fill="white" transform="translate(210 410)"/>
</clipPath>
</defs>
</svg>
